<?xml version="1.0" encoding="UTF-8" standalone="no"?>
<!-- Created with Inkscape (http://www.inkscape.org/) -->

<svg
   width="108.89805mm"
   height="98.718208mm"
   viewBox="0 0 108.89804 98.718201"
   version="1.1"
   id="svg5"
   xml:space="preserve"
   xmlns="http://www.w3.org/2000/svg"
   xmlns:svg="http://www.w3.org/2000/svg"><defs
     id="defs2" /><g
     id="layer1"
     transform="translate(-26.778503,-39.808555)"><path
       style="fill:#000000;stroke-width:0.101771"
       d="m 27.051752,138.29777 c -0.116113,-0.19196 -0.124047,-2.19537 -0.04909,-12.39066 0.0826,-11.23656 0.10264,-12.17858 0.263384,-12.38394 0.09569,-0.12226 5.326146,-4.60745 11.623251,-9.96711 C 57.14798,88.015517 55.477277,89.47196 55.47767,89.095115 55.477977,88.807141 55.360071,88.66754 54.489168,87.924747 53.945303,87.460876 51.732507,85.570049 49.57185,83.722883 47.411191,81.875737 44.753413,79.605619 43.665688,78.678187 32.41381,69.084454 27.480278,64.863756 27.160147,64.557484 l -0.381644,-0.365115 v -12.06978 c 0,-9.251913 0.02848,-12.098292 0.122128,-12.191906 0.07514,-0.07514 0.443379,-0.122128 0.957153,-0.122128 h 0.835024 l 27.309833,22.7513 c 15.02041,12.513216 27.412894,22.865929 27.538841,23.006008 0.227206,0.252712 0.228985,0.279547 0.228985,3.453212 v 3.198517 l -0.27987,0.295628 c -0.15393,0.162596 -1.539292,1.345105 -3.078584,2.627809 -1.539291,1.282704 -7.76772,6.499351 -13.840926,11.592551 -16.481354,13.82185 -37.360761,31.30619 -37.694553,31.56528 -0.238594,0.18521 -0.424055,0.2279 -0.989928,0.2279 -0.613227,0 -0.712857,-0.0273 -0.834841,-0.22899 z m 51.935142,0.076 c -0.162561,-0.19588 -0.05036,-24.27036 0.115059,-24.67918 0.05838,-0.14432 4.710769,-4.17424 10.750429,-9.31207 18.600188,-15.822892 17.529888,-14.887861 17.523598,-15.308943 -0.005,-0.349672 -0.12152,-0.462297 -2.97681,-2.882807 -1.63426,-1.385419 -8.077764,-6.882489 -14.318893,-12.215727 L 78.732776,64.278258 78.70689,52.229982 c -0.02385,-11.102428 -0.01266,-12.062917 0.142984,-12.234847 0.136387,-0.150701 0.322294,-0.18658 0.966847,-0.18658 h 0.797998 l 10.406519,8.67118 c 5.723588,4.769148 17.963052,14.964887 27.198802,22.65719 9.23575,7.692304 16.94172,14.127107 17.12439,14.299551 l 0.33212,0.313529 -0.0269,3.309897 -0.0269,3.309897 -4.79214,4.021802 c -2.63569,2.211982 -7.71916,6.474489 -11.29662,9.472239 -6.25815,5.24403 -16.93977,14.19643 -31.896435,26.73277 l -7.073114,5.92852 -0.725376,0.001 c -0.522185,0.001 -0.760955,-0.042 -0.852386,-0.15221 z"
       id="path179-3" /></g></svg>
